<svg width="105" height="31" viewBox="0 0 105 31" fill="none" xmlns="http://www.w3.org/2000/svg">
  <g clip-path="url(#a)">
    <path d="M64.664 25.886h-.244a2.343 2.343 0 0 0-2.343 2.343v.218a2.343 2.343 0 0 0 2.343 2.343h.244a2.343 2.343 0 0 0 2.343-2.343v-.218a2.343 2.343 0 0 0-2.343-2.343ZM50.626 8.009v3.894a.68.68 0 0 1-.702.676c-1.855-.039-4.025.896-4.025 3.657v6.446a.679.679 0 0 1-.68.68h-3.37a.679.679 0 0 1-.68-.68V8.278c0-.375.304-.679.68-.679h3.37c.376 0 .68.304.68.679v1.505c0 .124.165.159.218.048.698-1.477 2.198-2.296 3.747-2.497a.68.68 0 0 1 .764.675h-.002ZM54.524 7.601h3.372c.375 0 .678.304.678.68v14.404a.679.679 0 0 1-.678.678h-3.372a.679.679 0 0 1-.679-.678V8.28c0-.375.304-.679.68-.679ZM85.806 13.684v8.998a.679.679 0 0 1-.678.68h-3.372a.679.679 0 0 1-.679-.68v-8.588c0-1.577-.757-2.585-2.269-2.585s-2.458 1.102-2.458 2.964v8.212a.679.679 0 0 1-.679.678H72.3a.679.679 0 0 1-.68-.678v-8.59c0-1.576-.756-2.584-2.268-2.584-1.512 0-2.458 1.103-2.458 2.965v8.21a.679.679 0 0 1-.679.68h-3.372a.679.679 0 0 1-.678-.68V8.284c0-.375.303-.68.678-.68h3.372c.375 0 .679.305.679.68v.425c0 .109.136.157.205.072.766-.935 2.092-1.618 4.02-1.618 1.797 0 3.153.706 4.04 1.947a.114.114 0 0 0 .185.002c.891-1.187 2.316-1.95 4.477-1.95 3.624 0 5.988 2.585 5.988 6.525l-.002-.002ZM97.072 19.58c1.088 0 2.043-.359 2.695-.886a.675.675 0 0 1 .764-.062l2.662 1.53a.68.68 0 0 1 .171 1.04c-1.528 1.72-3.678 2.603-6.357 2.603-5.39 0-8.731-3.624-8.731-8.321 0-4.697 3.404-8.322 8.384-8.322 4.603 0 8.006 3.562 8.006 8.322 0 .628-.057 1.226-.17 1.797a.119.119 0 0 1-.115.094H93.456c-.08 0-.14.083-.108.16.633 1.516 2.044 2.047 3.721 2.047l.003-.002Zm2.745-5.737a.116.116 0 0 0 .11-.15c-.538-1.714-1.916-2.34-3.297-2.34-1.74 0-2.918.828-3.392 2.34a.117.117 0 0 0 .11.15H99.817Z" fill="#fff"/>
    <path d="M11.422 9.548a2.766 2.766 0 0 1-2.766-2.766V2.766a2.766 2.766 0 1 1 5.533 0V6.78a2.766 2.766 0 0 1-2.767 2.766v.002Zm2.766 11.183v-6.292a2.766 2.766 0 1 0-5.532 0v6.292a2.766 2.766 0 1 0 5.532 0Zm8.607-10.416V2.757a2.757 2.757 0 0 0-5.514 0v7.558a2.756 2.756 0 0 0 2.757 2.757 2.756 2.756 0 0 0 2.757-2.757Zm0 10.425v-2.863a2.756 2.756 0 0 0-2.757-2.757 2.756 2.756 0 0 0-2.757 2.757v2.863a2.756 2.756 0 0 0 2.757 2.757 2.756 2.756 0 0 0 2.757-2.757Zm8.662-16.105V2.803a2.804 2.804 0 0 0-5.606 0v1.832a2.804 2.804 0 0 0 5.607 0Zm-.112 16.116v-8.464a2.75 2.75 0 0 0-5.496 0v8.464a2.75 2.75 0 0 0 2.748 2.748 2.75 2.75 0 0 0 2.748-2.748Zm-25.782-7.73V2.725a2.725 2.725 0 1 0-5.448 0v10.298a2.725 2.725 0 1 0 5.45 0l-.002-.002Zm.046 7.595v-.118a2.804 2.804 0 0 0-5.607 0v.118a2.804 2.804 0 0 0 5.607 0Z" fill="url(#b)"/>
    <path d="M56.278 0h-.244a2.343 2.343 0 0 0-2.343 2.343v.218a2.343 2.343 0 0 0 2.343 2.343h.244a2.343 2.343 0 0 0 2.342-2.343v-.218A2.343 2.343 0 0 0 56.278 0Z" fill="#fff"/>
  </g>
  <defs>
    <linearGradient id="b" x1="15.73" y1="-.854" x2="15.73" y2="21.352" gradientUnits="userSpaceOnUse">
      <stop stop-color="#FF9300"/>
      <stop offset=".51" stop-color="#E20000"/>
      <stop offset="1" stop-color="#BF0000"/>
    </linearGradient>
    <clipPath id="a">
      <path fill="#fff" d="M0 0h104.668v30.79H0z"/>
    </clipPath>
  </defs>
</svg>