<?xml version="1.0" encoding="UTF-8"?>
<svg version="1.1" viewBox="0 0 800 800" width="1280" height="1280" xmlns="http://www.w3.org/2000/svg">
<path transform="translate(0)" d="m0 0h800v800h-800z" fill="#FEFEFE"/>
<path transform="translate(482,257)" d="m0 0h55v67h59l1 2-1 43h-60l1 123 8 4 46 1v44l-4 1-67-1-13-4-10-7-8-9-4-8-2-7-1-16v-121l-23 1-8 13-12 21-14 24-16 28-10 17-16 28-12 19-6 7-8 6-10 5-11 3h-55l-10-4-9-7-6-10-2-8-1-142-53-1 1-45h75l14 3 9 7 6 9 3 9 1 148 1 2h5l6-8 13-22 11-18 12-20 17-28 21-35 14-23 9-10 8-7 8-4 7-2 8-1h34z" fill="#020202"/>
</svg>
