<?xml version="1.0" encoding="UTF-8"?>
<svg version="1.1" viewBox="0 0 1600 1600" width="1280" height="1280" xmlns="http://www.w3.org/2000/svg">
<path transform="translate(0)" d="m0 0h1600v1600h-1600z"/>
<path transform="translate(404,716)" d="m0 0h9l14 2 13 5 13 9 8 8v2h2l-1-3 2-20 1-1h22l1 1v154l-2 16-4 12-6 10-9 10-11 7-13 5-7 2-8 1h-35l-14-3-12-5-10-7-9-9-8-16-2-8v-5h26l2 1 4 10 4 6 11 7 7 3 5 1 19 1 16-2 11-5 8-6 7-14 1-4 1-13v-14l-5 5-10 8-12 6-6 2-7 1h-24l-10-2-16-6-11-8-9-9-7-11-5-11-4-16-1-6v-20l4-19 7-16 8-11 8-8 14-9 13-5 8-2z" fill="#FEFFFD"/>
<path transform="translate(227,716)" d="m0 0 18 1 15 4 16 8 10 8 9 10 8 15 4 13 1 7v32l-5 17-5 10-8 11-8 8-13 8-10 4-16 4h-24l-14-3-13-5-14-10-10-11-8-14-5-15-2-11v-21l4-18 7-16 10-13 9-8 14-8 15-5z" fill="#FEFFFD"/>
<path transform="translate(1411,716)" d="m0 0h9l16 2 15 5 10 7 6 5 7 11 4 11 1 5 1 86 15 2 2 1v23l-1 1h-19l-9-2-6-3-6-7-1-10-8 7-10 8-8 4-9 3-7 1h-24l-16-4-13-7-7-7-6-10-3-10v-16l4-13 5-8 4-5 10-7 13-5 19-3 52-1v-16l-4-10-8-7-9-4-9-2h-12l-13 3-10 6-6 7-5 10h-25l-1-5 5-15 7-10 7-7 14-8 13-4z" fill="#FEFFFD"/>
<path transform="translate(579,717)" d="m0 0h27l15 4 16 8 10 9 7 8 8 16 4 16 1 6v16l-1 2-3 1h-117l2 14 4 11 6 9 8 7 12 6 5 1h22l13-5 8-6 7-9 4-10h27l-1 8-5 12-9 13-7 7-10 7-15 6-10 2h-24l-15-3-12-5-13-9-7-7-7-10-7-15-4-17-1-7v-12l4-23 7-16 6-9 12-12 13-8 15-5z" fill="#FEFFFD"/>
<path transform="translate(1032,717)" d="m0 0h28l15 4 16 8 12 11 7 10 5 11 4 14 1 7v19l-5 2h-115v8l4 14 6 10 5 6 10 6 11 4h22l14-5 9-7 6-9 3-8 1-1h26l-1 9-5 12-8 11-5 6-13 9-12 5-6 2-7 1h-23l-12-2-13-5-12-7-8-7-8-10-7-14-4-12-1-5v-36l5-17 8-15 11-12 8-6 14-7 10-3z" fill="#FEFFFD"/>
<path transform="translate(804,660)" d="m0 0 25 1 1 79 4-5h2v-2l11-8 12-6 8-2 15-1 15 2 15 5 14 10 8 10 5 11 4 17 1 24v79l-1 1h-26l-1-5-1-97-5-13-6-8-8-6-8-3-6-1h-14l-11 3-10 6-7 8-7 14-2 10-1 17-1 74-1 1h-24l-1-1v-213z" fill="#FEFFFD"/>
<path transform="translate(225,740)" d="m0 0h12l11 3 12 6 8 7 7 10 5 13 1 6v23l-3 12-6 12-9 10-12 7-10 3h-21l-13-5-10-7-7-8-6-13-4-16v-13l5-19 6-11 8-9 11-7z"/>
<path transform="translate(404,740)" d="m0 0h13l14 4 10 6 5 4 8 11 5 11 2 11v20l-2 11-4 9-7 10-9 8-13 6-4 1h-22l-11-4-10-6-7-7-6-10-4-13-2-10v-11l4-18 5-10 7-9 10-8 10-4z"/>
<path transform="translate(66,676)" d="m0 0h26v42h38l2 1v23l-1 1h-39l1 95 3 8 9 3h29l2 2v23l-1 1h-35l-14-3-10-6-4-5-5-12-1-5-1-19v-81l-26-1v-24l1-1h25v-41z" fill="#FEFFFD"/>
<path transform="translate(707,676)" d="m0 0h26l1 5-1 37h38l1 1v23l-1 1h-38l1 91 2 13 10 2 30 1 2 4v19l-2 2h-34l-15-3-10-6-6-8-3-8-1-12v-95h-28v-24l1-1h27z" fill="#FEFFFD"/>
<path transform="translate(1151,718)" d="m0 0h19l4 2 2 16 1 2 5-5 7-6 8-5 6-2 7-1 19-1 2 1v24l-1 1-20 1-13 4-10 9-5 10-3 11-2 14-1 82h-26l-1-4v-151z" fill="#FEFFFD"/>
<path transform="translate(1525,718)" d="m0 0h12l13 1 1 1v153l-2 2h-24l-1-1v-155z" fill="#FEFFFD"/>
<path transform="translate(1395,804)" d="m0 0h57v16l-4 11-6 9-9 7-12 5-7 1h-17l-10-2-9-6-4-5-2-4-1-9 2-9 4-6 8-5z"/>
<path transform="translate(1038,740)" d="m0 0h17l15 5 11 8 7 10 4 10 1 6-1 1h-92l2-8 4-9 6-9 10-8 12-5z"/>
<path transform="translate(585,740)" d="m0 0h16l13 4 10 6 7 7 6 12 3 10-1 1h-92l1-7 8-16 8-8 11-6z"/>
<path transform="translate(1269,825)" d="m0 0h11l8 4 8 9 3 7v9l-5 10-8 7-8 3h-8l-8-3-8-7-4-8-1-3v-8l5-10 8-7z" fill="#FEFFFD"/>
<path transform="translate(1530,660)" d="m0 0h14l5 3 3 4 1 3v11l-3 6-4 4-4 1h-10l-8-4-4-7v-10l4-7z" fill="#FEFFFD"/>
</svg>
