<?xml version="1.0" encoding="UTF-8"?>
<svg version="1.1" viewBox="0 0 804 804" width="1280" height="1280" xmlns="http://www.w3.org/2000/svg">
<path transform="translate(0)" d="m0 0h801l1 1v800l-1 1h-800l-1-1z" fill="#F85334"/>
<path transform="translate(387,156)" d="m0 0h28l21 3 21 6 21 9 17 10 13 10 12 11 10 10 10 13 9 15 7 14 8 24 4 18 1 12v184l-4 23-5 17-9 21-9 15-8 11-9 11-11 11-14 11-14 9-16 8-18 7-21 5-24 3h-10l-19-2-26-6-18-7-16-8-16-11-13-11-4-3 1-4 8-8h2l2-4 30-30 4 1 4 3v2l4 2 14 9 19 8 22 4h12l20-3 17-6 13-7 11-8 15-15 10-16 6-13 4-14 2-13v-170l-3-18-5-15-7-14-10-14-12-12-15-10-15-7-13-4-11-2h-26l-15 3-16 6-11 6-11 8-4 2v2l-7 6-11 15-8 16-5 16-2 12v21l4 20 6 15 6 11 8 11 15 15 14 9 15 7 15 4 6 1 69 1 1 1v62l-2 1h-62l-20-2-18-4-18-6-16-8-11-6-11-8-14-12-10-10-13-17-8-13-8-16-6-17-5-21-2-16v-23l3-22 6-22 8-19 10-18 12-16 12-13 11-10 13-9 13-8 16-8 21-7 20-4z" fill="#FDFDFD"/>
</svg>
